<?xml version="1.0" encoding="UTF-8" standalone="no"?><svg id="Layer_1" data-name="Layer 1" xmlns="http://www.w3.org/2000/svg" viewBox="0 0 232.39 173"><defs><style>.cls-1{fill:#fff;}</style></defs><title>test</title><path class="cls-1" d="M172.61,112.65a10.29,10.29,0,0,1,4.76-8.68l-4.15-7.19a10.33,10.33,0,0,1-14-14l-6.8-3.92A10.33,10.33,0,0,1,133,73.92c0-.14,0-.28,0-.43h-8.65a10.31,10.31,0,0,1-19,5.14l-7.19,4.15a10.33,10.33,0,0,1-14,14l-3.92,6.8A10.33,10.33,0,0,1,75.35,123l-.43,0v8.65a10.31,10.31,0,0,1,5.14,19l4.15,7.19a10.33,10.33,0,0,1,14,14l7.19,4.15a10.31,10.31,0,0,1,19,5.14H133a10.31,10.31,0,0,1,19-5.14l7.19-4.15a10.33,10.33,0,0,1,14-14l3.92-6.8a10.33,10.33,0,0,1,4.94-19.4l.43,0V123A10.33,10.33,0,0,1,172.61,112.65Zm-43.89,45.62a31,31,0,1,1,31-31A31,31,0,0,1,128.72,158.27Z" transform="translate(-12.31 -41)"/><path class="cls-1" d="M101.82,49.61,94.07,41V79.75A60.11,60.11,0,0,1,101.82,75Z" transform="translate(-12.31 -41)"/><path class="cls-1" d="M94.07,214l7.75-5.16V179.16a60.11,60.11,0,0,1-7.75-4.77Z" transform="translate(-12.31 -41)"/><path class="cls-1" d="M76.86,154.62v12H23.5V95.22L76.86,65.1V99.52A59,59,0,0,1,90.63,82.46V41L12.31,86.62V201.09L90.63,214V171.68A59,59,0,0,1,76.86,154.62Z" transform="translate(-12.31 -41)"/><path class="cls-1" d="M155.18,208.84l7.75,5.16V174.39a60.11,60.11,0,0,1-7.75,4.77Z" transform="translate(-12.31 -41)"/><path class="cls-1" d="M162.93,41l-7.75,8.61V75a60.11,60.11,0,0,1,7.75,4.77Z" transform="translate(-12.31 -41)"/><path class="cls-1" d="M166.37,41V82.46a59,59,0,0,1,13.77,17.06V65.1L233.5,95.22v71.44H180.14v-12a59,59,0,0,1-13.77,17.06V214l78.32-12.91V86.62Z" transform="translate(-12.31 -41)"/></svg>